# xmcd CD database file
#
# Track frame offsets:
#	150
#	17428
#	30326
#	44625
#	61676
#	77006
#	95562
#	110757
#	126991
#	140705
#	156392
#	171220
#
# Disc length: 2482 seconds
#
# Revision: 2
# Processed by: cddbd v1.5.2PL0 Copyright (c) Steve Scherf et al.
# Submitted via: jetAudio 7
#
DISCID=9f09b00c
DTITLE=The Shires - Accidentally On Purpose
DYEAR=2018
DGENRE=Country
TTITLE0=The Hard Way
TTITLE1=Echo
TTITLE2=Guilty
TTITLE3=Sleepwalk
TTITLE4=Accidentally On Purpose
TTITLE5=Stay The Night
TTITLE6=Ahead Of The Storm
TTITLE7=Speechless
TTITLE8=River Of Love
TTITLE9=Strangers
TTITLE10=World Without You
TTITLE11=Loving You Too Long
EXTD=YEAR: 2018
EXTT0=
EXTT1=
EXTT2=
EXTT3=
EXTT4=
EXTT5=
EXTT6=
EXTT7=
EXTT8=
EXTT9=
EXTT10=
EXTT11=
PLAYORDER=
